<svg preserveAspectRatio="none" overflow="visible" style="display: block;" width="24" height="24" viewBox="0 0 24 24" fill="none" xmlns="http://www.w3.org/2000/svg">
<g id="Frame">
<g id="Vector">
<path d="M20.001 22.001H4.00098C3.47054 22.001 2.96184 21.7903 2.58676 21.4152C2.21169 21.0401 2.00098 20.5314 2.00098 20.001V11.001C2.00098 10.4705 2.21169 9.96184 2.58676 9.58676C2.96184 9.21169 3.47054 9.00098 4.00098 9.00098H6.00098V4.00098C6.00098 3.47054 6.21169 2.96184 6.58676 2.58676C6.96184 2.21169 7.47054 2.00098 8.00098 2.00098H20.001C20.5314 2.00098 21.0401 2.21169 21.4152 2.58676C21.7903 2.96184 22.001 3.47054 22.001 4.00098V20.001C22.001 20.5314 21.7903 21.0401 21.4152 21.4152C21.0401 21.7903 20.5314 22.001 20.001 22.001Z" fill="none"/>
<path d="M4.00098 22.001H20.001C20.5314 22.001 21.0401 21.7903 21.4152 21.4152C21.7903 21.0401 22.001 20.5314 22.001 20.001V4.00098C22.001 3.47054 21.7903 2.96184 21.4152 2.58676C21.0401 2.21169 20.5314 2.00098 20.001 2.00098H8.00098C7.47054 2.00098 6.96184 2.21169 6.58676 2.58676C6.21169 2.96184 6.00098 3.47054 6.00098 4.00098V20.001C6.00098 20.5314 5.79026 21.0401 5.41519 21.4152C5.04012 21.7903 4.53141 22.001 4.00098 22.001ZM4.00098 22.001C3.47054 22.001 2.96184 21.7903 2.58676 21.4152C2.21169 21.0401 2.00098 20.5314 2.00098 20.001V11.001C2.00098 10.4705 2.21169 9.96184 2.58676 9.58676C2.96184 9.21169 3.47054 9.00098 4.00098 9.00098H6.00098" stroke="#A4A4A4" stroke-width="1.3" stroke-linecap="round" stroke-linejoin="round"/>
</g>
<path id="Vector_2" d="M14.999 18H9.99902" stroke="#A4A4A4" stroke-width="1.3" stroke-linecap="round" stroke-linejoin="round"/>
<path id="Vector_3" d="M17.999 14.001H9.99902" stroke="#A4A4A4" stroke-width="1.3" stroke-linecap="round" stroke-linejoin="round"/>
<path id="Vector_4" d="M16.999 6H10.999C10.4467 6 9.99902 6.44772 9.99902 7V9C9.99902 9.55228 10.4467 10 10.999 10H16.999C17.5513 10 17.999 9.55228 17.999 9V7C17.999 6.44772 17.5513 6 16.999 6Z" stroke="#A4A4A4" stroke-width="1.3" stroke-linecap="round" stroke-linejoin="round"/>
</g>
</svg>
