<svg preserveAspectRatio="none" overflow="visible" style="display: block;" width="14" height="13.8751" viewBox="0 0 14 13.8751" fill="none" xmlns="http://www.w3.org/2000/svg">
<path id="Vector" d="M5.36964 5.05051V3.73238C5.36964 3.62136 5.41129 3.53806 5.50838 3.48262L8.15856 1.95638C8.51935 1.74828 8.9495 1.65119 9.39342 1.65119C11.0584 1.65119 12.113 2.9416 12.113 4.31518C12.113 4.41227 12.113 4.52329 12.099 4.63431L9.35177 3.02477C9.18528 2.92768 9.01874 2.92768 8.85226 3.02477L5.36964 5.05051ZM11.5579 10.1843V7.0346C11.5579 6.84029 11.4746 6.70157 11.3082 6.60445L7.82553 4.57873L8.96327 3.92656C9.06039 3.87111 9.14369 3.87111 9.24076 3.92656L11.891 5.4528C12.6541 5.89687 13.1675 6.84029 13.1675 7.75601C13.1675 8.8105 12.5431 9.78187 11.5579 10.1843ZM4.55101 7.40933L3.41326 6.74334C3.31617 6.68792 3.27452 6.60462 3.27452 6.49362V3.44111C3.27452 1.95651 4.41227 0.832559 5.95245 0.832559C6.53526 0.832559 7.07624 1.02687 7.53427 1.37371L4.80089 2.95553C4.63444 3.05262 4.55114 3.19135 4.55114 3.38567L4.55101 7.40933ZM7 8.82456L5.36964 7.90884V5.96634L7 5.05065L8.63024 5.96634V7.90884L7 8.82456ZM8.04755 13.0426C7.46474 13.0426 6.92376 12.8483 6.46572 12.5015L9.19911 10.9197C9.36559 10.8226 9.44883 10.6838 9.44883 10.4895V6.46573L10.6005 7.13172C10.6976 7.18714 10.7393 7.27044 10.7393 7.38145V10.434C10.7393 11.9186 9.58761 13.0426 8.04755 13.0426ZM4.75911 9.94852L2.10891 8.42223C1.34573 7.9782 0.832423 7.03477 0.832423 6.11906C0.832423 5.05065 1.47067 4.09328 2.45576 3.69086V6.85435C2.45576 7.04866 2.53905 7.18743 2.70551 7.2845L6.17435 9.2963L5.03659 9.94852C4.9395 10.0039 4.8562 10.0039 4.75911 9.94852ZM4.60658 12.224C3.03869 12.224 1.88701 11.0446 1.88701 9.58773C1.88701 9.47672 1.90094 9.36572 1.91473 9.25471L4.6481 10.8365C4.81455 10.9336 4.98115 10.9336 5.1476 10.8365L8.63024 8.82467V10.1428C8.63024 10.2538 8.58859 10.3371 8.49147 10.3926L5.84127 11.9188C5.48052 12.1269 5.05052 12.224 4.60658 12.224ZM8.04755 13.8751C9.72644 13.8751 11.1278 12.6818 11.447 11.1C13.001 10.6976 14 9.24077 14 7.75618C14 6.78487 13.5838 5.84145 12.8345 5.16153C12.9039 4.87013 12.9456 4.57873 12.9456 4.28746C12.9456 2.30336 11.336 0.818629 9.47672 0.818629C9.10216 0.818629 8.74137 0.874069 8.38063 0.999013C7.75617 0.388491 6.89587 0 5.95245 0C4.27353 0 2.87223 1.19319 2.55298 2.77501C0.999017 3.17743 0 4.63431 0 6.11888C0 7.09019 0.416212 8.03362 1.16547 8.71355C1.09611 9.00492 1.05446 9.2963 1.05446 9.58762C1.05446 11.5717 2.664 13.0564 4.52329 13.0564C4.89785 13.0564 5.25862 13.001 5.61939 12.876C6.24371 13.4866 7.10401 13.8751 8.04755 13.8751Z" fill="white"/>
</svg>
